# xmcd
#
# Track frame offsets: 
#        151
#        18092
#        39507
#        60394
#        81610
#        100340
#        120384
#        140303
#        163061
#        184367
#        202914
#        218686
#        237958
#        254482
#
# Disc length: 3728 seconds
#
# Revision: 0
# Processed by: cddbd v1.5.2PL0 Copyright (c) Steve Scherf et al.
# Submitted via: ExactAudioCopy v0.95a4
#
DISCID=bd0e8e0e
DTITLE=优客李林 - 昨日今日永远
DYEAR=2002
DGENRE=Pop
TTITLE0=Just for you
TTITLE1=认错
TTITLE2=在爱你的路上
TTITLE3=多情种
TTITLE4=少年游
TTITLE5=等待是一种最初苍老
TTITLE6=This could be the night
TTITLE7=不知所措
TTITLE8=有梦有朋友
TTITLE9=你的愁我的梦
TTITLE10=黄丝带
TTITLE11=输了你赢了世界又如何
TTITLE12=多帮别人想
TTITLE13=Ocean deep
EXTD=
EXTT0=
EXTT1=
EXTT2=
EXTT3=
EXTT4=
EXTT5=
EXTT6=
EXTT7=
EXTT8=
EXTT9=
EXTT10=
EXTT11=
EXTT12=
EXTT13=
PLAYORDER=
